<svg xmlns="http://www.w3.org/2000/svg" width="1280" height="720" viewBox="0 0 1280 720" fill="none">
<defs><linearGradient id="a" x1="100" y1="30" x2="1080" y2="620" gradientUnits="userSpaceOnUse"><stop stop-color="#6D7DFF"/><stop offset="0.48" stop-color="#8B4DFF"/><stop offset="1" stop-color="#0C1A4A"/></linearGradient></defs>
<rect width="1280" height="720" rx="36" fill="#070F2B"/><circle cx="1020" cy="130" r="180" fill="#B76BFF" fill-opacity="0.35"/><circle cx="250" cy="610" r="240" fill="#3C84FF" fill-opacity="0.22"/>
<rect x="120" y="220" width="90" height="300" fill="#4E65E4"/><rect x="230" y="160" width="110" height="360" fill="#5F56E8"/><rect x="360" y="210" width="70" height="310" fill="#4383FD"/><rect x="450" y="130" width="140" height="390" fill="#6D4DF1"/><rect x="620" y="190" width="90" height="330" fill="#4470E9"/><rect x="730" y="150" width="160" height="370" fill="#7958FF"/><rect x="920" y="230" width="85" height="290" fill="#4D7FFF"/><rect x="1025" y="180" width="130" height="340" fill="#6553E5"/>
<path d="M0 530L130 508L270 534L390 500L540 526L670 504L790 518L920 500L1060 514L1280 496V720H0V530Z" fill="url(#a)"/>
</svg>
